<svg height="200" width="200"><rect width="100%" height="100%" fill="#0A1627"/><g><svg xmlns="http://www.w3.org/2000/svg" xmlns:xlink="http://www.w3.org/1999/xlink" version="1.1" x="0" y="0" viewBox="2.7962875366210938 4.936646461486816 94.3780288696289 90.26335144042969" enable-background="new 0 0 100 100" xml:space="preserve" height="200" width="200" class="icon-icon-0" data-fill-palette-color="accent" id="icon-0"><path d="M84.5 55C75 44 65.5 37.5 61.2 34.9 61.1 34.7 61 34.5 61 34.4L73.2 27.8C73.6 27.6 73.9 27.2 73.9 26.7V17.4L81 10.3C81.5 9.8 81.5 9 81 8.5S79.7 8 79.2 8.5L71.7 16C71.5 16.2 71.3 16.6 71.3 16.9V26L60.6 31.8C61.4 30.2 61.9 28.5 61.9 26.6 63.5 25.5 64.5 23.8 64.5 21.7 64.5 18.5 61.9 15.8 58.6 15.8 58.3 15.8 58 15.8 57.6 15.9 57.9 13 58.7 9.3 60.8 7.1 61.3 6.6 61.3 5.8 60.7 5.3 60.2 4.8 59.4 4.8 58.9 5.4 56.3 8.2 55.3 12.6 55 15.9 53.5 15.2 51.8 14.8 49.9 14.8S46.4 15.2 44.8 15.9C44.5 12.6 43.6 8.3 40.9 5.4 40.4 4.9 39.6 4.9 39.1 5.3 38.6 5.8 38.6 6.6 39 7.1 41.1 9.4 41.9 13.1 42.2 15.9 41.9 15.8 41.6 15.8 41.2 15.8 38 15.8 35.3 18.4 35.3 21.7 35.3 23.7 36.3 25.5 37.9 26.6 37.9 28.4 38.3 30 39 31.5L28.9 26V16.9C28.9 16.6 28.8 16.2 28.5 16L21 8.5C20.5 8 19.7 8 19.2 8.5S18.7 9.8 19.2 10.3L26.3 17.4V26.7C26.3 27.2 26.6 27.6 27 27.8L38.8 34.2C38.7 34.4 38.6 34.7 38.5 34.9 34.5 37.5 25 44 15.5 55 2.8 69.7-0.4 80.1 6 85.9 7 86.8 8.5 87.3 10.2 87.3 15.7 87.3 24.2 82.7 33.1 73.9L30.5 79.3C30.4 79.5 30.4 79.7 30.4 79.8V87.4L24.8 93C24.3 93.5 24.3 94.3 24.8 94.8 25 95 25.4 95.2 25.7 95.2S26.3 95.1 26.6 94.8L32.5 88.9C32.7 88.7 32.9 88.3 32.9 88V80.1L36 73.6C38.9 79.5 44 81.6 49.9 81.6S61 79.6 63.8 73.6L66.9 80.1V88C66.9 88.3 67 88.7 67.3 88.9L73.2 94.8C73.4 95 73.8 95.2 74.1 95.2S74.7 95.1 75 94.8C75.5 94.3 75.5 93.5 75 93L69.5 87.5V79.9C69.5 79.7 69.5 79.5 69.4 79.4L66.8 74C68.4 75.5 69.9 76.9 71.4 78.2 71.5 78.4 71.7 78.5 71.9 78.6 78.9 84.3 85.3 87.3 89.7 87.3 91.4 87.3 92.8 86.8 93.9 85.9 100.4 80.1 97.2 69.7 84.5 55M82.5 56.6C86.1 60.8 89 64.6 91 68.1H82.8L62.9 39.8C62.9 39.5 62.8 39.2 62.8 38.9 67.6 42.2 75.1 48.1 82.5 56.6M80.9 69.8V81.7C78.7 80.5 76.3 78.8 73.8 76.8V59.8zM39.1 50.1C40.9 52.6 43.5 53.8 45.7 54.3 43.1 58.3 40.4 61.9 37.8 65.1V47.6C38.1 48.5 38.5 49.4 39.1 50.1M54.3 54.4C56.5 53.9 59.1 52.7 60.9 50.2 61.4 49.5 61.8 48.7 62.1 47.9V65.1C59.6 61.9 56.9 58.4 54.3 54.4M17.5 56.6C24.9 48 32.4 42.2 37.2 38.9 37.2 39.2 37.1 39.5 37.1 39.7L17.1 68H9C11 64.7 13.8 60.8 17.5 56.6M19.1 69.8L26.1 59.8V76.8C23.6 78.8 21.2 80.4 19.1 81.7zM7.7 84C6.1 82.6 4.3 80.1 6 74.5 6.4 73.3 6.9 72 7.6 70.6H16.5V83C14 84.2 11.8 84.7 10.2 84.7 9.1 84.7 8.3 84.5 7.7 84M28.6 74.7V56.2L35.2 46.8V68C33 70.6 30.8 72.7 28.6 74.7M64.7 68V46.8L71.3 56.2V74.6C69.2 72.7 66.9 70.5 64.7 68M92.3 84C91.8 84.5 90.9 84.7 89.8 84.7 88.1 84.7 86 84.1 83.5 83V70.6H92.5C93.2 72 93.7 73.3 94.1 74.5 94.8 77.2 95.5 81.1 92.3 84" fill="#c1c1c1" data-fill-palette-color="accent"></path></svg></g></svg>